<?xml version="1.0" standalone="no"?>
<!DOCTYPE svg PUBLIC "-//W3C//DTD SVG 20010904//EN"
 "http://www.w3.org/TR/2001/REC-SVG-20010904/DTD/svg10.dtd">
<svg version="1.0" xmlns="http://www.w3.org/2000/svg"
 width="480.000000pt" height="480.000000pt" viewBox="0 0 480.000000 480.000000"
 preserveAspectRatio="xMidYMid meet">

<g transform="translate(0.000000,480.000000) scale(0.100000,-0.100000)"
fill="#000000" stroke="none">
<path d="M1254 2528 c-626 -1096 -1162 -2033 -1191 -2083 l-52 -90 1194 -3
c657 -1 1732 -1 2388 0 l1194 3 -197 344 c-109 189 -204 347 -211 352 -8 5
-726 9 -1616 9 -882 0 -1603 2 -1603 4 0 4 582 988 1267 2145 200 338 363 621
361 630 -4 21 -381 681 -389 681 -3 0 -518 -897 -1145 -1992z"/>
<path d="M2168 2440 l-686 -1200 1373 0 1374 0 -181 318 c-100 174 -187 323
-194 331 -12 13 -103 15 -601 15 -465 1 -587 4 -585 14 1 6 133 241 293 521
l291 510 -193 338 c-105 186 -195 341 -199 346 -3 4 -315 -533 -692 -1193z"/>
</g>
</svg>
