<?xml version="1.0" standalone="no"?>
<!DOCTYPE svg PUBLIC "-//W3C//DTD SVG 20010904//EN"
 "http://www.w3.org/TR/2001/REC-SVG-20010904/DTD/svg10.dtd">
<svg version="1.0" xmlns="http://www.w3.org/2000/svg"
 width="500.000000pt" height="500.000000pt" viewBox="0 0 500.000000 500.000000"
 preserveAspectRatio="xMidYMid meet">

<g transform="translate(0.000000,500.000000) scale(0.100000,-0.100000)"
fill="#24292f" stroke="none">
<path d="M1251 2498 l-1241 -2173 1245 -3 c685 -1 1805 -1 2490 0 l1245 3
-207 362 -207 363 -1688 0 -1689 0 12 22 c12 23 1103 1869 1477 2498 112 190
209 355 215 367 9 19 -18 71 -193 378 -111 195 -206 355 -210 355 -4 0 -566
-978 -1249 -2172z"/>
<path d="M2257 2498 l-715 -1253 720 -3 c396 -1 1041 -1 1434 0 l715 3 -198
347 -198 347 -623 3 -623 3 311 543 311 543 -197 347 c-109 191 -203 353 -209
360 -9 10 -166 -256 -728 -1240z"/>
</g>
</svg>
