<?xml version="1.0" standalone="no"?>
<!DOCTYPE svg PUBLIC "-//W3C//DTD SVG 20010904//EN"
 "http://www.w3.org/TR/2001/REC-SVG-20010904/DTD/svg10.dtd">
<svg version="1.0" xmlns="http://www.w3.org/2000/svg"
 width="500.000000pt" height="500.000000pt" viewBox="0 0 500.000000 500.000000"
 preserveAspectRatio="xMidYMid meet">
<metadata>
Created by potrace 1.14, written by Peter Selinger 2001-2017
</metadata>
<g transform="translate(0.000000,500.000000) scale(0.100000,-0.100000)"
fill="#000000" stroke="none">
<path d="M2335 4944 c-145 -14 -245 -29 -346 -50 -609 -127 -1152 -491 -1511
-1014 -211 -306 -345 -653 -404 -1040 -22 -143 -25 -499 -5 -640 87 -627 372
-1158 836 -1558 353 -303 786 -500 1254 -569 143 -21 512 -24 646 -5 189 27
374 72 545 134 210 75 493 236 685 388 103 81 294 272 375 375 224 283 392
626 473 970 41 173 57 296 63 495 30 913 -455 1763 -1261 2213 -253 141 -544
238 -850 283 -98 14 -421 26 -500 18z m315 -281 c80 -140 144 -258 143 -262
-1 -3 -333 -586 -738 -1296 -406 -709 -739 -1296 -742 -1302 -4 -10 300 -13
1488 -15 l1493 -3 147 -257 148 -258 -2089 0 -2089 0 1042 1825 c573 1003
1044 1824 1047 1824 3 0 70 -115 150 -256z m380 -668 l162 -284 -345 -603
-344 -603 691 -3 691 -2 160 -281 c88 -154 162 -284 163 -290 2 -5 -500 -9
-1343 -9 -750 0 -1345 4 -1343 9 4 11 1342 2351 1344 2351 1 0 75 -128 164
-285z"/>
</g>
</svg>
